<svg width="20" height="20" viewBox="0 0 20 20" fill="none" xmlns="http://www.w3.org/2000/svg">
<circle cx="10" cy="10" r="9.5" stroke="#FF2525"/>
<path fill-rule="evenodd" clip-rule="evenodd" d="M5.19797 15.9543C5.24958 15.9309 5.67179 15.5311 6.13622 15.0659L6.98065 14.22L6.99629 14.7019C7.01002 15.1253 7.01974 15.1941 7.07641 15.2697C7.19908 15.4334 7.29897 15.4844 7.49669 15.4844C7.69447 15.4844 7.79443 15.4333 7.91696 15.2696C7.97942 15.1861 7.98145 15.1465 7.98145 14.0055L7.98145 12.8275L7.8972 12.7173C7.73291 12.5024 7.72634 12.5015 6.45198 12.5114C5.35666 12.52 5.30853 12.5229 5.22562 12.5847C5.06152 12.707 5.01032 12.8067 5.01032 13.004C5.01032 13.2012 5.06149 13.3009 5.22553 13.4232C5.30237 13.4806 5.36489 13.4887 5.7992 13.4977L6.2866 13.5077L5.40842 14.3869C4.65078 15.1453 4.52728 15.2821 4.50876 15.383C4.43277 15.7976 4.82533 16.123 5.19797 15.9543ZM10.8072 15.9177C12.0492 15.7495 13.2003 15.1991 14.1175 14.3351C16.0043 12.5575 16.5343 9.76495 15.4271 7.43469C14.9399 6.40935 14.2392 5.60616 13.2826 4.97634C11.2055 3.60902 8.45239 3.68358 6.44209 5.1617C5.0684 6.17173 4.18916 7.72298 4.02203 9.43152C3.95773 10.0887 4.04183 11.1067 4.17525 11.2865C4.20768 11.3302 4.28218 11.3988 4.34079 11.4389C4.42876 11.4991 4.47774 11.5097 4.62142 11.4997C4.82952 11.4852 4.96319 11.4015 5.0416 11.2368C5.10024 11.1135 5.09802 11.0066 5.02449 10.4143C4.8405 8.93212 5.55104 7.21794 6.77126 6.20031C7.45647 5.62887 8.25523 5.25446 9.13863 5.09066C9.57191 5.01035 10.4237 5.01016 10.8588 5.09032C12.0204 5.30432 13.0841 5.91529 13.8162 6.78899C14.3838 7.46636 14.7392 8.20883 14.9167 9.08822C15.0152 9.57619 15.0148 10.4345 14.916 10.9292C14.5121 12.9509 13.0208 14.4613 10.9995 14.8959C10.7129 14.9576 10.5053 14.9777 9.97749 14.9948C9.37663 15.0144 9.30717 15.0224 9.22883 15.0807C9.06914 15.1997 9.01353 15.304 9.01353 15.4844C9.01353 15.6722 9.07486 15.7804 9.24778 15.8978C9.34611 15.9646 9.37892 15.9679 9.91732 15.9648C10.2287 15.963 10.6292 15.9419 10.8072 15.9177ZM10.202 13.4609C10.4331 13.3541 10.4991 13.2015 10.4991 12.774L10.4991 12.4544L10.7176 12.4021C11.059 12.3204 11.3311 12.1729 11.5647 11.9432C12.1279 11.3892 12.1377 10.6719 11.5902 10.0879C11.2479 9.72284 10.8127 9.55906 10.0582 9.51136C9.44872 9.47283 9.21469 9.38253 9.04177 9.11926C8.9304 8.94972 9.1189 8.69653 9.43931 8.58524C9.67856 8.50212 10.3188 8.50212 10.5581 8.58524C10.7821 8.66305 10.9607 8.82545 10.9856 8.97415C11.0222 9.19215 11.0665 9.28849 11.1728 9.38163C11.4403 9.61591 11.8736 9.49638 11.9745 9.16045C12.0263 8.98769 11.9703 8.68143 11.8398 8.4249C11.6454 8.04285 11.1564 7.68445 10.7044 7.59272L10.5147 7.55422L10.4991 7.19245C10.4822 6.80222 10.4559 6.73408 10.2681 6.59421C10.147 6.50401 9.85036 6.50401 9.72926 6.59421C9.54164 6.73396 9.51515 6.80238 9.49829 7.19095L9.48266 7.55119L9.25363 7.60913C8.57512 7.7807 8.11934 8.22437 8.01854 8.81144C7.95221 9.19767 8.08848 9.58961 8.40723 9.92957C8.75216 10.2974 9.18661 10.4595 9.95588 10.5074C10.2116 10.5234 10.4664 10.55 10.5219 10.5666C10.6953 10.6185 10.875 10.7355 10.9385 10.838C11.1734 11.2172 10.6381 11.5447 9.85986 11.4977C9.37219 11.4683 9.05475 11.2987 9.01209 11.0449C8.97516 10.8251 8.93115 10.7291 8.82463 10.6358C8.63398 10.4688 8.36038 10.4694 8.16882 10.6372C8.01854 10.7688 7.97582 10.926 8.02017 11.1844C8.12025 11.7672 8.61968 12.2497 9.28375 12.4051L9.49332 12.4542L9.50364 12.8205C9.51471 13.2151 9.53929 13.2818 9.72463 13.4198C9.82828 13.497 10.0774 13.5184 10.202 13.4609Z" fill="#FF2525"/>
</svg>
