<svg width="20" height="20" viewBox="0 0 20 20" fill="none" xmlns="http://www.w3.org/2000/svg">
<circle cx="10" cy="10" r="9.5" stroke="#00C696"/>
<path fill-rule="evenodd" clip-rule="evenodd" d="M14.8019 4.04572C14.7503 4.06909 14.3281 4.46886 13.8637 4.93409L13.0192 5.77997L13.0036 5.29814C12.9899 4.87465 12.9801 4.80592 12.9235 4.73029C12.8008 4.56664 12.7009 4.5156 12.5032 4.5156C12.3054 4.5156 12.2055 4.56671 12.0829 4.73041C12.0205 4.81387 12.0184 4.85347 12.0184 5.99453V7.1725L12.1027 7.28267C12.267 7.49758 12.2735 7.49852 13.5479 7.48856C14.6432 7.47998 14.6913 7.47711 14.7743 7.41531C14.9384 7.29303 14.9896 7.19331 14.9896 6.99603C14.9896 6.79878 14.9384 6.69913 14.7744 6.57676C14.6975 6.51945 14.635 6.51133 14.2007 6.50235L13.7133 6.4923L14.5915 5.61314C15.3491 4.85472 15.4726 4.71793 15.4911 4.617C15.5671 4.20238 15.1745 3.87699 14.8019 4.04572ZM9.19263 4.08229C7.95067 4.25052 6.79959 4.80086 5.88241 5.66493C3.99562 7.44248 3.4656 10.235 4.57277 12.5653C5.05994 13.5907 5.76063 14.3938 6.7173 15.0237C8.79434 16.391 11.5475 16.3164 13.5578 14.8383C14.9315 13.8283 15.8107 12.277 15.9778 10.5685C16.0421 9.91128 15.9581 8.89327 15.8246 8.71349C15.7922 8.66981 15.7177 8.60123 15.6591 8.56108C15.5711 8.50086 15.5221 8.49025 15.3785 8.50027C15.1704 8.51478 15.0367 8.59846 14.9583 8.76323C14.8996 8.88653 14.9019 8.99339 14.9754 9.58567C15.1594 11.0679 14.4488 12.7821 13.2286 13.7997C12.5434 14.3711 11.7446 14.7455 10.8612 14.9093C10.428 14.9896 9.57616 14.9898 9.14112 14.9097C7.9795 14.6957 6.9158 14.0847 6.18366 13.211C5.61604 12.5336 5.26067 11.7912 5.08318 10.9118C4.98473 10.4238 4.98504 9.56551 5.0839 9.07077C5.48782 7.04907 6.97911 5.53869 9.00038 5.10407C9.28699 5.04242 9.49459 5.02233 10.0224 5.00516C10.6232 4.9856 10.6927 4.97765 10.771 4.91927C10.9307 4.80027 10.9863 4.69603 10.9863 4.5156C10.9863 4.32783 10.925 4.2196 10.7521 4.10219C10.6538 4.03542 10.621 4.03215 10.0826 4.03521C9.77119 4.03695 9.37071 4.05814 9.19263 4.08229ZM9.7979 6.53913C9.5668 6.64587 9.50078 6.7985 9.50078 7.22604V7.54557L9.28223 7.59789C8.94093 7.67963 8.66874 7.82709 8.43518 8.05685C7.87198 8.61084 7.86216 9.32814 8.40972 9.91212C8.75203 10.2772 9.18722 10.4409 9.94167 10.4886C10.5512 10.5272 10.7852 10.6175 10.9581 10.8807C11.0695 11.0503 10.881 11.3035 10.5606 11.4148C10.3213 11.4979 9.68105 11.4979 9.4418 11.4148C9.21774 11.337 9.03923 11.1746 9.01427 11.0259C8.97771 10.8079 8.93342 10.7115 8.82712 10.6184C8.55962 10.3841 8.12628 10.5036 8.02541 10.8396C7.97353 11.0123 8.0296 11.3186 8.16011 11.5751C8.35452 11.9572 8.84347 12.3156 9.29546 12.4073L9.48514 12.4458L9.50078 12.8076C9.51764 13.1978 9.54397 13.2659 9.73175 13.4058C9.85285 13.496 10.1495 13.496 10.2706 13.4058C10.4582 13.266 10.4847 13.1976 10.5016 12.8091L10.5172 12.4488L10.7462 12.3909C11.4248 12.2193 11.8805 11.7756 11.9813 11.1886C12.0477 10.8023 11.9114 10.4104 11.5926 10.0704C11.2477 9.70258 10.8133 9.54046 10.044 9.49257C9.78823 9.47662 9.53353 9.45001 9.47798 9.43338C9.30453 9.38153 9.12492 9.26449 9.0614 9.16197C8.82646 8.78276 9.3618 8.45534 10.14 8.5023C10.6277 8.53169 10.9451 8.70126 10.9878 8.95508C11.0247 9.17485 11.0687 9.27086 11.1752 9.36418C11.3659 9.53116 11.6395 9.53063 11.8311 9.36284C11.9813 9.2312 12.0241 9.07395 11.9797 8.81558C11.8796 8.23285 11.3802 7.75034 10.7161 7.59486L10.5066 7.54579L10.4962 7.17946C10.4852 6.7849 10.4606 6.71822 10.2752 6.58019C10.1716 6.503 9.92253 6.48157 9.7979 6.53913Z" fill="#00C696"/>
</svg>
