<svg width="16" height="16" viewBox="0 0 16 16" fill="none" xmlns="http://www.w3.org/2000/svg">
<g clip-path="url(#clip0_2202_196)">
<path d="M11.0261 7.82532L11.0184 7.84548C11.0208 7.8394 11.0227 7.83316 11.0251 7.82708L11.0261 7.82532Z" fill="#343434"/>
<path d="M8.00033 0C5.36385 0 3.20001 2.1568 3.20001 4.78752C3.20001 5.80704 3.52641 6.75712 4.07681 7.53536L4.05713 7.50464L7.13009 12.8163L7.14561 12.8366C7.26945 12.9982 7.39201 13.1285 7.54033 13.2266C7.68865 13.3246 7.87857 13.3866 8.06513 13.3678C8.43793 13.3304 8.65457 13.0728 8.85473 12.8014L8.86721 12.7846L12.2551 7.0192L12.2578 7.0144C12.3389 6.868 12.3976 6.72032 12.4479 6.57728C12.6802 6.00917 12.7998 5.4013 12.8 4.78752C12.8 2.1568 10.6368 0 8.00033 0ZM8.00033 0.8C10.201 0.8 12 2.59488 12 4.78752C12.0002 5.29966 11.9001 5.80688 11.7056 6.28064L11.7016 6.29056L11.6981 6.30096C11.656 6.42208 11.6103 6.532 11.5575 6.62736L8.20401 12.3339C8.05569 12.5293 7.95201 12.5755 7.98529 12.572C8.00241 12.5704 8.01825 12.5838 7.98161 12.5595C7.94657 12.5363 7.87505 12.4683 7.79025 12.3602L4.74081 7.088L4.73009 7.07312C4.27041 6.42352 4.00001 5.6368 4.00001 4.78752C4.00001 2.59504 5.79969 0.8 8.00033 0.8ZM8.00033 2.056C6.48641 2.056 5.26193 3.27616 5.26193 4.78752C5.26193 6.29888 6.48657 7.51904 8.00033 7.51904C9.51409 7.51904 10.7381 6.29872 10.7381 4.78752C10.7381 3.27616 9.51409 2.056 8.00033 2.056ZM8.00033 2.856C9.09105 2.856 9.93809 3.7016 9.93809 4.78752C9.93809 5.87344 9.09121 6.71904 8.00033 6.71904C6.90945 6.71904 6.06193 5.87328 6.06193 4.78752C6.06193 3.7016 6.90961 2.856 8.00033 2.856Z" fill="#343434"/>
<path d="M5.44057 11.0491C3.18041 11.3685 1.59961 12.1325 1.59961 13.2571C1.59961 14.772 4.24089 16 7.99961 16C11.7583 16 14.3996 14.772 14.3996 13.2571C14.3996 12.1325 12.819 11.3685 10.559 11.0491L10.2458 11.5823C11.9492 11.8186 13.5 12.3152 13.5 12.8915C14.3996 14.5 10.8273 15.5 7.99961 15.5C5.17193 15.5 2 14.5 2.5 12.8915C2.49984 12.3171 4.04217 11.821 5.75081 11.5837C5.64761 11.4055 5.54393 11.2275 5.44057 11.0491Z" fill="#343434"/>
</g>
<defs>
<clipPath id="clip0_2202_196">
<rect width="16" height="16" fill="white"/>
</clipPath>
</defs>
</svg>
