<svg width="24" height="24" viewBox="0 0 24 24" fill="none" xmlns="http://www.w3.org/2000/svg">
<path d="M2 7V4.5C2 3.83696 2.26339 3.20107 2.73223 2.73223C3.20107 2.26339 3.83696 2 4.5 2H7M2 17V19.5C2 20.163 2.26339 20.7989 2.73223 21.2678C3.20107 21.7366 3.83696 22 4.5 22H7M17 2H19.5C20.163 2 20.7989 2.26339 21.2678 2.73223C21.7366 3.20107 22 3.83696 22 4.5V7M17 22H19.5C20.163 22 20.7989 21.7366 21.2678 21.2678C21.7366 20.7989 22 20.163 22 19.5V17" stroke="#FFC700" stroke-width="2" stroke-linecap="round" stroke-linejoin="round"/>
<path d="M12 4C10.1442 4.00219 8.36495 4.74039 7.05268 6.05267C5.7404 7.36495 5.0022 9.14415 5.00001 11C4.99778 12.5166 5.49318 13.992 6.41019 15.2C6.41019 15.2 6.6011 15.4514 6.63228 15.4876L12 21.8182L17.3703 15.4844C17.3983 15.4507 17.5898 15.2 17.5898 15.2L17.5904 15.1981C18.507 13.9907 19.0022 12.5159 19 11C18.9978 9.14415 18.2596 7.36495 16.9473 6.05267C15.635 4.74039 13.8558 4.00219 12 4ZM12 13.5454C11.4966 13.5454 11.0044 13.3962 10.5858 13.1165C10.1672 12.8368 9.84097 12.4392 9.64831 11.9741C9.45565 11.509 9.40524 10.9972 9.50346 10.5034C9.60168 10.0096 9.84411 9.55607 10.2001 9.20009C10.5561 8.8441 11.0096 8.60167 11.5034 8.50345C11.9972 8.40523 12.509 8.45564 12.9741 8.6483C13.4392 8.84096 13.8368 9.16722 14.1165 9.58582C14.3962 10.0044 14.5455 10.4966 14.5455 11C14.5446 11.6748 14.2762 12.3218 13.799 12.799C13.3218 13.2762 12.6748 13.5446 12 13.5454Z" fill="#FFC700"/>
</svg>
