<svg width="16" height="17" viewBox="0 0 16 17" fill="none" xmlns="http://www.w3.org/2000/svg">
<path d="M13.1613 2.02136H11.871V0.940275C11.871 0.768242 11.7894 0.603256 11.6442 0.481611C11.499 0.359965 11.3021 0.291626 11.0968 0.291626C10.8914 0.291626 10.6945 0.359965 10.5493 0.481611C10.4041 0.603256 10.3226 0.768242 10.3226 0.940275V2.02136H5.67742V0.940275C5.67742 0.768242 5.59585 0.603256 5.45066 0.481611C5.30547 0.359965 5.10855 0.291626 4.90323 0.291626C4.6979 0.291626 4.50098 0.359965 4.35579 0.481611C4.2106 0.603256 4.12903 0.768242 4.12903 0.940275V2.02136H2.83871C2.08584 2.02136 1.3638 2.27193 0.831439 2.71797C0.299077 3.164 0 3.76895 0 4.39973V13.9132C0 14.544 0.299077 15.149 0.831439 15.595C1.3638 16.041 2.08584 16.2916 2.83871 16.2916H13.1613C13.9142 16.2916 14.6362 16.041 15.1686 15.595C15.7009 15.149 16 14.544 16 13.9132V4.39973C16 3.76895 15.7009 3.164 15.1686 2.71797C14.6362 2.27193 13.9142 2.02136 13.1613 2.02136ZM2.83871 3.31865H4.12903V4.39973C4.12903 4.57177 4.2106 4.73675 4.35579 4.8584C4.50098 4.98004 4.6979 5.04838 4.90323 5.04838C5.10855 5.04838 5.30547 4.98004 5.45066 4.8584C5.59585 4.73675 5.67742 4.57177 5.67742 4.39973V3.31865H10.3226V4.39973C10.3226 4.57177 10.4041 4.73675 10.5493 4.8584C10.6945 4.98004 10.8914 5.04838 11.0968 5.04838C11.3021 5.04838 11.499 4.98004 11.6442 4.8584C11.7894 4.73675 11.871 4.57177 11.871 4.39973V3.31865H13.1613C13.5035 3.31865 13.8317 3.43255 14.0737 3.63529C14.3157 3.83804 14.4516 4.11301 14.4516 4.39973V6.77811H1.54839V4.39973C1.54839 4.11301 1.68433 3.83804 1.92631 3.63529C2.1683 3.43255 2.49649 3.31865 2.83871 3.31865ZM13.1613 14.9943H2.83871C2.49649 14.9943 2.1683 14.8804 1.92631 14.6777C1.68433 14.4749 1.54839 14.2 1.54839 13.9132V8.07541H14.4516V13.9132C14.4516 14.2 14.3157 14.4749 14.0737 14.6777C13.8317 14.8804 13.5035 14.9943 13.1613 14.9943Z" fill="#343434"/>
<path d="M9.13316 9.99573L9.13306 9.99583L9.14049 10.0031C9.16121 10.0233 9.17767 10.0474 9.18892 10.074C9.20016 10.1007 9.20595 10.1293 9.20595 10.1582C9.20595 10.1872 9.20016 10.2158 9.18892 10.2425C9.17767 10.2691 9.16121 10.2932 9.14049 10.3134L9.14047 10.3134L9.1368 10.3171L8.40347 11.0504L8.12062 11.3332L8.40347 11.6161L9.1368 12.3494L9.13678 12.3494L9.14049 12.3531C9.16121 12.3733 9.17767 12.3974 9.18892 12.424C9.20016 12.4507 9.20595 12.4793 9.20595 12.5082C9.20595 12.5372 9.20016 12.5658 9.18892 12.5925C9.17767 12.6191 9.16121 12.6432 9.14049 12.6634L9.13518 12.6686L9.13007 12.674C9.11167 12.6933 9.08944 12.7085 9.0648 12.7188C9.04017 12.729 9.01367 12.734 8.987 12.7334L8.987 12.7332L8.97609 12.7333C8.94723 12.7334 8.91865 12.7278 8.892 12.7167C8.86535 12.7056 8.84118 12.6894 8.82091 12.6688L8.82091 12.6688L8.81915 12.6671L8.08582 11.9337L7.80298 11.6509L7.52013 11.9337L6.7868 12.6671L6.78679 12.6671L6.78504 12.6688C6.76477 12.6894 6.7406 12.7056 6.71395 12.7167C6.6873 12.7278 6.65872 12.7334 6.62986 12.7333L6.62986 12.7331L6.61895 12.7334C6.59228 12.734 6.56578 12.729 6.54115 12.7188C6.51651 12.7085 6.49428 12.6933 6.47588 12.674L6.47077 12.6686L6.46546 12.6634C6.44474 12.6432 6.42828 12.6191 6.41703 12.5925C6.40579 12.5658 6.4 12.5372 6.4 12.5082C6.4 12.4793 6.40579 12.4507 6.41703 12.424C6.42828 12.3974 6.44474 12.3733 6.46546 12.3531L6.46548 12.3531L6.46915 12.3494L7.20248 11.6161L7.48533 11.3332L7.20248 11.0504L6.47539 10.3233C6.43792 10.2812 6.4176 10.2264 6.4186 10.1699C6.41963 10.1116 6.44324 10.056 6.48447 10.0147C6.52569 9.97352 6.58131 9.9499 6.6396 9.94887C6.69612 9.94788 6.75088 9.96819 6.79304 10.0057L7.52013 10.7328L7.80298 11.0156L8.08582 10.7328L8.81915 9.99943L8.81918 9.99945L8.82279 9.99573C8.84298 9.97502 8.86711 9.95855 8.89376 9.94731C8.92042 9.93607 8.94905 9.93027 8.97798 9.93027C9.0069 9.93027 9.03553 9.93607 9.06219 9.94731C9.08884 9.95855 9.11297 9.97501 9.13316 9.99573Z" stroke="#343434" stroke-width="0.8"/>
</svg>
