<svg width="16" height="16" viewBox="0 0 16 16" fill="none" xmlns="http://www.w3.org/2000/svg">
<path fill-rule="evenodd" clip-rule="evenodd" d="M4.08752 0.0130814C3.44201 0.114724 3.00083 0.258731 2.47444 0.53961C1.25416 1.19067 0.372409 2.4014 0.0739036 3.83577C-0.0246345 4.30908 -0.0246345 5.2863 0.0739036 5.75961C0.522029 7.91289 2.24448 9.45998 4.34389 9.59496C4.70724 9.61833 4.7183 9.61645 4.81615 9.51468C4.94703 9.37865 4.94927 9.19693 4.82174 9.06439C4.74518 8.98475 4.6882 8.96595 4.52296 8.96583C3.97164 8.96539 3.28634 8.77381 2.7241 8.46291C2.30366 8.23041 2.0668 8.04031 1.69909 7.64019C1.22494 7.1242 0.910129 6.53431 0.727586 5.81973C0.637761 5.46807 0.625193 5.34274 0.625193 4.79769C0.625193 4.25264 0.637761 4.12732 0.727586 3.77565C0.911517 3.05562 1.2382 2.44621 1.71239 1.93856C2.07223 1.55331 2.41021 1.29014 2.81532 1.07969C5.12823 -0.121827 7.87623 1.20746 8.51291 3.83577C8.57941 4.11028 8.59557 4.29713 8.59603 4.79769C8.59668 5.48025 8.53246 5.83732 8.30685 6.40609C8.18279 6.71896 7.92646 7.17891 7.89462 7.14585C7.88336 7.13414 7.83378 6.85803 7.7844 6.53226C7.70448 6.00501 7.68366 5.93007 7.59484 5.84979C7.53994 5.80021 7.45652 5.75961 7.40941 5.75961C7.29768 5.75961 7.15608 5.86449 7.1146 5.978C7.06522 6.11303 7.36565 8.03378 7.45659 8.1644C7.55868 8.31105 7.71192 8.3086 8.7172 8.14415C9.73377 7.97786 9.79317 7.95241 9.79317 7.68344C9.79317 7.54328 9.77394 7.49679 9.68835 7.43037C9.57752 7.34432 9.52362 7.34817 8.55744 7.51117L8.40901 7.53622L8.49552 7.39943C8.76754 6.96905 9.01589 6.33848 9.14393 5.75311C9.23325 5.34478 9.23325 4.2506 9.14393 3.84227C8.72051 1.90645 7.3682 0.501614 5.52697 0.084744C5.25244 0.0226203 4.32141 -0.023752 4.08752 0.0130814ZM4.37947 1.69691C4.31251 1.78537 4.29956 1.85912 4.29956 2.1515V2.50043L4.13571 2.5513C3.5828 2.72288 3.25199 3.16356 3.24671 3.73557C3.24459 3.96255 3.26317 4.05441 3.34394 4.21653C3.51715 4.56419 3.73736 4.71901 4.51232 5.03817C4.93196 5.21099 5.08447 5.295 5.21824 5.42698C5.38575 5.59231 5.38857 5.59929 5.37164 5.81143C5.34886 6.09704 5.23205 6.26329 4.96473 6.3905C4.77756 6.4796 4.71626 6.48846 4.38294 6.47451C4.06555 6.46128 3.98251 6.44281 3.8224 6.34978C3.57756 6.2075 3.40585 6.2063 3.30003 6.34617C3.25608 6.40425 3.22011 6.49679 3.22011 6.55186C3.22011 6.77122 3.67806 7.05695 4.11601 7.1109L4.29956 7.1335V7.46316C4.29956 7.87546 4.37288 8.00408 4.60797 8.00408C4.84699 8.00408 4.91638 7.87734 4.91638 7.44079V7.08869L5.10525 7.02344C5.69008 6.82152 6.0301 6.30653 5.98739 5.68754C5.94641 5.09396 5.68456 4.83156 4.73731 4.43461C4.42813 4.30507 4.11674 4.15277 4.04535 4.09613C3.81932 3.9169 3.80486 3.5779 4.01354 3.35141C4.25607 3.08825 4.83959 3.03923 5.22908 3.24933C5.47457 3.38175 5.64594 3.38584 5.75781 3.26207C5.99186 3.00304 5.72767 2.69438 5.13802 2.53795L4.93566 2.48428L4.91638 2.12196C4.89341 1.69026 4.83531 1.5913 4.60481 1.5913C4.49359 1.5913 4.44054 1.61615 4.37947 1.69691ZM9.79275 5.8566C9.66622 5.98814 9.66565 6.17175 9.79144 6.30249L9.88605 6.40088H12.2446C13.9837 6.40088 14.6449 6.41367 14.7619 6.44962C14.9736 6.51467 15.293 6.84669 15.3556 7.06685C15.386 7.1741 15.4024 7.53526 15.4024 8.0989V8.96599H10.8709H6.33929L6.24468 9.06439C6.185 9.12639 6.15004 9.20855 6.15004 9.28663C6.15004 9.36471 6.185 9.44687 6.24468 9.50887L6.33929 9.60727H10.8709H15.4024V10.2485V10.8898H8.92576H2.44907V10.3469C2.44907 9.82394 2.4456 9.80041 2.35443 9.70566C2.22867 9.57488 2.05207 9.57549 1.9255 9.70707L1.82947 9.80691L1.8405 12.3022L1.85152 14.7976L1.97354 15.0653C2.14332 15.438 2.36187 15.67 2.71277 15.8503L3.00406 16H8.92576H14.8475L15.1388 15.8503C15.4897 15.67 15.7082 15.438 15.878 15.0653L16 14.7976V10.8877V6.97787L15.856 6.67503C15.6826 6.31022 15.4594 6.08301 15.101 5.9065L14.8434 5.77965L12.3661 5.76822L9.88874 5.7568L9.79275 5.8566ZM15.4024 13.0395C15.4024 14.1066 15.3887 14.5961 15.3556 14.7128C15.293 14.933 14.9736 15.265 14.7619 15.33C14.5318 15.4007 3.31969 15.4007 3.08965 15.33C2.87788 15.265 2.55852 14.933 2.49595 14.7128C2.4628 14.5961 2.44907 14.1066 2.44907 13.0395V11.5311H8.92576H15.4024V13.0395ZM4.3942 12.912C4.33452 12.9741 4.29956 13.0562 4.29956 13.1343C4.29956 13.2124 4.33452 13.2945 4.3942 13.3565L4.48881 13.4549H6.45845H8.4281L8.5227 13.3565C8.58238 13.2945 8.61735 13.2124 8.61735 13.1343C8.61735 13.0562 8.58238 12.9741 8.5227 12.912L8.4281 12.8137H6.45845H4.48881L4.3942 12.912ZM10.0999 12.912C10.0402 12.9741 10.0052 13.0562 10.0052 13.1343C10.0052 13.2124 10.0402 13.2945 10.0999 13.3565L10.1945 13.4549H11.7786H13.3627L13.4573 13.3565C13.517 13.2945 13.552 13.2124 13.552 13.1343C13.552 13.0562 13.517 12.9741 13.4573 12.912L13.3627 12.8137H11.7786H10.1945L10.0999 12.912Z" fill="#343434"/>
</svg>
