<svg width="16" height="14" viewBox="0 0 16 14" fill="none" xmlns="http://www.w3.org/2000/svg">
<path d="M13.625 2.5H11V1.75C10.9994 1.35236 10.8412 0.971173 10.56 0.689997C10.2788 0.408821 9.89764 0.250595 9.5 0.25H6.5C6.10236 0.250595 5.72117 0.408821 5.44 0.689997C5.15882 0.971173 5.00059 1.35236 5 1.75V2.5H2.375C1.87784 2.5004 1.40116 2.69807 1.04961 3.04961C0.698069 3.40116 0.500397 3.87784 0.5 4.375V11.875C0.500397 12.3722 0.698069 12.8488 1.04961 13.2004C1.40116 13.5519 1.87784 13.7496 2.375 13.75H13.625C14.1222 13.7496 14.5988 13.5519 14.9504 13.2004C15.3019 12.8488 15.4996 12.3722 15.5 11.875V4.375C15.4996 3.87784 15.3019 3.40116 14.9504 3.04961C14.5988 2.69807 14.1222 2.5004 13.625 2.5ZM5.75 1.75C5.75 1.55109 5.82902 1.36032 5.96967 1.21967C6.11032 1.07902 6.30109 1 6.5 1H9.5C9.69891 1 9.88968 1.07902 10.0303 1.21967C10.171 1.36032 10.25 1.55109 10.25 1.75V2.5H5.75V1.75ZM14.75 11.875C14.75 12.1734 14.6315 12.4595 14.4205 12.6705C14.2095 12.8815 13.9234 13 13.625 13H2.375C2.07663 13 1.79048 12.8815 1.5795 12.6705C1.36853 12.4595 1.25 12.1734 1.25 11.875V7.02025L5.6315 8.48125C5.66977 8.49369 5.70976 8.50002 5.75 8.5H10.25C10.2902 8.50002 10.3302 8.49369 10.3685 8.48125L14.75 7.02025V11.875ZM14.75 6.2545C14.7099 6.253 14.6699 6.25807 14.6315 6.2695L10.1892 7.75H5.81075L1.3685 6.26875C1.33008 6.25732 1.29005 6.25225 1.25 6.25375V4.375C1.25 4.07663 1.36853 3.79048 1.5795 3.5795C1.79048 3.36853 2.07663 3.25 2.375 3.25H13.625C13.9234 3.25 14.2095 3.36853 14.4205 3.5795C14.6315 3.79048 14.75 4.07663 14.75 4.375V6.2545Z" fill="#343434"/>
</svg>
