<svg width="20" height="21" viewBox="0 0 20 21" fill="none" xmlns="http://www.w3.org/2000/svg">
<path d="M8 0H12C12.5304 0 13.0391 0.210714 13.4142 0.585786C13.7893 0.960859 14 1.46957 14 2V4H18C18.5304 4 19.0391 4.21071 19.4142 4.58579C19.7893 4.96086 20 5.46957 20 6V11.53C18.9018 10.5429 17.4767 9.99775 16 10C14.947 10.0008 13.9128 10.2785 13.0011 10.8052C12.0893 11.3319 11.3321 12.0891 10.8053 13.0008C10.2785 13.9125 10.0007 14.9468 9.99981 15.9997C9.99888 17.0527 10.2748 18.0874 10.8 19H2C1.46957 19 0.960859 18.7893 0.585786 18.4142C0.210714 18.0391 0 17.5304 0 17V6C0 4.89 0.89 4 2 4H6V2C6 0.89 6.89 0 8 0ZM12 4V2H8V4H12ZM17 16.5V15H13V13H17V11.5L20 14L17 16.5ZM15 17H19V19H15V20.5L12 18L15 15.5V17Z" fill="#FF5C00"/>
</svg>
