<svg width="20" height="20" viewBox="0 0 20 20" fill="none" xmlns="http://www.w3.org/2000/svg">
<path d="M19.4643 6.25H0.535714C0.241071 6.25 0 6.03906 0 5.78125V4.375C0 3.33984 0.959821 2.5 2.14286 2.5H4.28571V0.46875C4.28571 0.210938 4.52679 0 4.82143 0H6.60714C6.90179 0 7.14286 0.210938 7.14286 0.46875V2.5H12.8571V0.46875C12.8571 0.210938 13.0982 0 13.3929 0H15.1786C15.4732 0 15.7143 0.210938 15.7143 0.46875V2.5H17.8571C19.0402 2.5 20 3.33984 20 4.375V5.78125C20 6.03906 19.7589 6.25 19.4643 6.25ZM0.535714 7.5H19.4643C19.7589 7.5 20 7.71094 20 7.96875V18.125C20 19.1602 19.0402 20 17.8571 20H2.14286C0.959821 20 0 19.1602 0 18.125V7.96875C0 7.71094 0.241071 7.5 0.535714 7.5ZM12.0223 13.75L14.1696 11.8711C14.3795 11.6875 14.3795 11.3906 14.1696 11.207L12.9063 10.1016C12.6964 9.91797 12.3571 9.91797 12.1473 10.1016L10 11.9805L7.85268 10.1016C7.64286 9.91797 7.30357 9.91797 7.09375 10.1016L5.83036 11.207C5.62054 11.3906 5.62054 11.6875 5.83036 11.8711L7.97768 13.75L5.83036 15.6289C5.62054 15.8125 5.62054 16.1094 5.83036 16.293L7.09375 17.3984C7.30357 17.582 7.64286 17.582 7.85268 17.3984L10 15.5195L12.1473 17.3984C12.3571 17.582 12.6964 17.582 12.9063 17.3984L14.1696 16.293C14.3795 16.1094 14.3795 15.8125 14.1696 15.6289L12.0223 13.75Z" fill="#407BFF"/>
</svg>
